<mxfile host="app.diagrams.net" modified="2024-09-20T08:16:09.470Z" agent="Mozilla/5.0 (Windows NT 10.0; Win64; x64; rv:131.0) Gecko/20100101 Firefox/131.0" version="21.7.0" etag="ggdW8Nm0ilwA8CAiI9ei" type="github">
  <diagram name="Seite-1" id="vPlPAys0gNip2TTkJNrA">
    <mxGraphModel>
      <root>
        <mxCell id="0" />
        <mxCell id="1" parent="0" />
      </root>
    </mxGraphModel>
  </diagram>
</mxfile>
